<?xml version="1.0" encoding="utf-8"?>
<!-- Generator: Adobe Illustrator 19.2.1, SVG Export Plug-In . SVG Version: 6.00 Build 0)  -->
<svg version="1.1" id="Layer_1" xmlns="http://www.w3.org/2000/svg" xmlns:xlink="http://www.w3.org/1999/xlink" x="0px" y="0px"
	 viewBox="0 0 64 64" style="enable-background:new 0 0 64 64;" xml:space="preserve">
<style type="text/css">
	.st0{fill:#167EBB;fill-opacity:1.000000e-002;}
	.st1{fill:#167EBB;}
</style>
<title>tools</title>
<desc>Created with Sketch.</desc>
<g id="Page-1">
	<g id="grid" transform="translate(-608.000000, -20.000000)">
		<g id="tools" transform="translate(608.000000, 20.000000)">
			<rect id="wrapper" class="st0" width="64" height="64"/>
			<g id="icon" transform="translate(10.000000, 10.000000)">
				<path id="Shape" class="st1" d="M44.6,32.2l-6.1-6.1c-0.1-0.1-0.4-0.2-0.6-0.2l-5.8,0.5c-0.2,0-0.3,0.1-0.4,0.2l-0.6,0.6
					l-6.5-6.5l6.6-6.6l1.1,1.1c0.1,0.1,0.3,0.2,0.5,0.2c0.2,0,0.4-0.1,0.5-0.2l4.5-4.5c0.1-0.1,0.1-0.1,0.1-0.2l2.6-5.8
					c0.1-0.3,0.1-0.6-0.1-0.8l-2.1-2.1c-0.2-0.2-0.5-0.3-0.8-0.1l-5.8,2.6c-0.1,0-0.1,0.1-0.2,0.1l-4.5,4.5c-0.3,0.3-0.3,0.7,0,1
					l1.1,1.1l-6.6,6.6l-3.9-3.9l0.6-0.6c0.1-0.1,0.2-0.3,0.2-0.4l0.5-5.8c0-0.2-0.1-0.4-0.2-0.6l-6.1-6.1c-0.3-0.3-0.7-0.3-1,0
					L9,2.9c-0.3,0.3-0.3,0.7,0,1l4.5,4.5l-4.8,4.8L4.2,8.7c-0.3-0.3-0.7-0.3-1,0l-2.6,2.6c-0.3,0.3-0.3,0.7,0,1l6.1,6.1
					c0.1,0.1,0.3,0.2,0.5,0.2c0,0,0,0,0.1,0L13,18c0.2,0,0.3-0.1,0.4-0.2l0.6-0.6l3.9,3.9l-2.7,2.7l-0.8-0.8
					c-0.2-0.2-0.5-0.3-0.8-0.1l-3.7,1.6c0,0,0,0,0,0l0,0c0,0,0,0,0,0c0,0,0,0,0,0c0,0,0,0,0,0c0,0,0,0,0,0c0,0,0,0,0,0c0,0,0,0,0,0
					c0,0,0,0,0,0c0,0,0,0,0,0l0,0c0,0,0,0,0,0l-8.2,8.2c0,0,0,0,0,0l0,0c0,0,0,0,0,0c0,0,0,0,0,0c0,0,0,0,0,0c0,0,0,0,0,0
					c0,0,0,0,0,0c0,0,0,0,0,0l0,0c0,0,0,0,0,0l-1.3,2.4C-0.1,35.7,0,36,0.2,36.3L6,42.1c0.1,0.1,0.3,0.2,0.5,0.2
					c0.1,0,0.2,0,0.3-0.1l2.4-1.3c0,0,0,0,0,0c0,0,0,0,0,0c0,0,0,0,0,0c0,0,0,0,0,0c0,0,0,0,0,0c0,0,0,0,0,0l0,0c0,0,0,0,0,0
					l8.2-8.2c0,0,0,0,0,0c0,0,0,0,0,0c0,0,0,0,0,0c0,0,0,0,0-0.1c0,0,0,0,0,0c0,0,0-0.1,0-0.1c0,0,0,0,0,0l0,0c0,0,0,0,0,0l1.6-3.7
					c0.1-0.3,0.1-0.6-0.1-0.8l-0.8-0.8l2.7-2.7l6.5,6.5L27,31.4c-0.1,0.1-0.2,0.3-0.2,0.4l-0.5,5.8c0,0.2,0.1,0.4,0.2,0.6l6.1,6.1
					c0.1,0.1,0.3,0.2,0.5,0.2c0.2,0,0.4-0.1,0.5-0.2l2.6-2.6c0.3-0.3,0.3-0.7,0-1l-4.5-4.5l4.8-4.8l4.5,4.5c0.3,0.3,0.7,0.3,1,0
					l2.6-2.6C44.9,32.9,44.9,32.4,44.6,32.2z M32.5,5.5l5.3-2.4l1.4,1.4l-2.4,5.3l-3.9,3.9l-1.1-1.1l-2.1-2.1l-1.1-1.1L32.5,5.5z
					 M29.2,11.9l1.1,1.1l-6.6,6.6l-1.1-1.1L29.2,11.9z M13.5,15.8l-0.9,0.9l-5.2,0.5l-5.3-5.3l1.7-1.7l4.5,4.5c0.3,0.3,0.7,0.3,1,0
					L15,8.9c0.3-0.3,0.3-0.7,0-1l-4.5-4.5l1.7-1.7l5.3,5.3L17,12.3l-0.9,0.9L13.5,15.8z M10.2,26.2l0.6,0.6L3.6,34L3,33.4L10.2,26.2
					z M5.5,35.8L4.6,35l7.2-7.2l0.9,0.9L5.5,35.8z M13.6,29.6l0.9,0.9l-7.2,7.2l-0.9-0.9L13.6,29.6z M6.6,40.7l-5.1-5.1l0.6-1.1
					L5,37.3l2.8,2.8L6.6,40.7z M8.9,39.3l-0.6-0.6l7.2-7.2l0.6,0.6L8.9,39.3z M16.8,30.8L16,30l-1.8-1.8c0,0,0,0,0,0c0,0,0,0,0,0
					l-1.8-1.8l-0.9-0.9l2.3-1l1,1l2.1,2.1l1,1L16.8,30.8z M17.3,26.1l-1.1-1.1l2.7-2.7l1.1,1.1L17.3,26.1z M21.6,22.8l-2.1-2.1
					L15,16.3l1.7-1.7l4.4,4.4l2.1,2.1h0l7,7l-1.7,1.7L21.6,22.8z M41.5,34.3L37,29.8c-0.3-0.3-0.7-0.3-1,0l-5.8,5.8
					c-0.3,0.3-0.3,0.7,0,1l4.5,4.5L33,42.8l-5.3-5.3l0.5-5.2l0.9-0.9l2.6-2.6c0,0,0,0,0,0l0.9-0.9l5.2-0.5l5.3,5.3L41.5,34.3z"/>
			</g>
		</g>
	</g>
</g>
</svg>
