<?xml version="1.0" encoding="utf-8"?>
<!-- Generator: Adobe Illustrator 19.2.1, SVG Export Plug-In . SVG Version: 6.00 Build 0)  -->
<svg version="1.1" id="Layer_1" xmlns="http://www.w3.org/2000/svg" xmlns:xlink="http://www.w3.org/1999/xlink" x="0px" y="0px"
	 viewBox="0 0 64 64" style="enable-background:new 0 0 64 64;" xml:space="preserve">
<style type="text/css">
	.st0{fill:#167EBB;fill-opacity:1.000000e-002;}
	.st1{fill:#167EBB;}
</style>
<title>sitemap</title>
<desc>Created with Sketch.</desc>
<g id="Page-1">
	<g id="grid" transform="translate(-440.000000, -104.000000)">
		<g id="sitemap" transform="translate(440.000000, 104.000000)">
			<rect id="wrapper" class="st0" width="64" height="64"/>
			<g id="icon" transform="translate(10.000000, 11.000000)">
				<path id="Shape" class="st1" d="M41.1,11.9c-0.4,0-0.7,0.3-0.7,0.7v6c0,0.4,0.3,0.7,0.7,0.7c0.4,0,0.7-0.3,0.7-0.7v-6
					C41.8,12.2,41.5,11.9,41.1,11.9z"/>
				<path id="Shape_1_" class="st1" d="M44.1,0h-6H0.7C0.3,0,0,0.3,0,0.7v29.8c0,0.4,0.3,0.7,0.7,0.7H27l10.3,10.2
					c0.1,0.1,0.3,0.2,0.5,0.2s0.4-0.1,0.5-0.2l3.2-3.2c0.3-0.3,0.3-0.7,0-1l-6.1-6.1h2.8h6c0.4,0,0.7-0.3,0.7-0.7V0.7
					C44.8,0.3,44.5,0,44.1,0z M39.9,37.8L37.7,40l-10-9.9l-4.9-4.9L25,23l8.1,8L39.9,37.8z M18,19.1l1.3,2.5h-2.9v-5.3h3h2.3v3.2
					L19,18.2c-0.3-0.1-0.6-0.1-0.8,0.1C18,18.5,17.9,18.9,18,19.1z M22.1,21.3l1.7,0.9L22,24l-1-2l-0.8-1.6L22.1,21.3z M37.4,29.8
					h-3.5l-8.4-8.3c0,0,0,0,0,0c0,0,0,0,0,0c0,0,0,0,0,0c0,0,0,0,0,0c0,0,0,0,0,0c0,0,0,0,0,0c0,0,0,0,0,0c0,0,0,0,0,0l-2.2-1.1
					v-4.6c0-0.4-0.3-0.7-0.7-0.7h-2.3v-1.6h10.6v1.6h-3c-0.4,0-0.7,0.3-0.7,0.7v6.7c0,0.4,0.3,0.7,0.7,0.7h6.7
					c0.4,0,0.7-0.3,0.7-0.7v-6.7c0-0.4-0.3-0.7-0.7-0.7h-2.3v-2.3c0-0.4-0.3-0.7-0.7-0.7H20.1v-0.5h4.2c0.4,0,0.7-0.3,0.7-0.7V3.3
					c0-0.4-0.3-0.7-0.7-0.7h-9.4c-0.4,0-0.7,0.3-0.7,0.7v7.5c0,0.4,0.3,0.7,0.7,0.7h3.8v0.5h-12c-0.4,0-0.7,0.3-0.7,0.7v2.3H3.7
					c-0.4,0-0.7,0.3-0.7,0.7v6.7C3,22.7,3.3,23,3.7,23h6.7c0.4,0,0.7-0.3,0.7-0.7v-6.7c0-0.4-0.3-0.7-0.7-0.7h-3v-1.6h11.3v1.6h-3
					c-0.4,0-0.7,0.3-0.7,0.7v6.7c0,0.4,0.3,0.7,0.7,0.7H20l1.2,2.4c0,0,0,0,0,0c0,0,0,0.1,0,0.1c0,0,0,0,0,0c0,0,0,0,0,0.1
					c0,0,0,0,0,0c0,0,0,0,0,0l4.2,4.2H1.4V1.4h36V29.8z M15.6,10.1V4h8v6.1H15.6z M33.7,16.3v5.3h-5.3v-5.3H33.7z M9.7,16.3v5.3H4.4
					v-5.3H9.7z M43.4,29.8h-4.6V1.4h4.6V29.8z"/>
			</g>
		</g>
	</g>
</g>
</svg>
