<?xml version="1.0" encoding="utf-8"?>
<!-- Generator: Adobe Illustrator 19.2.1, SVG Export Plug-In . SVG Version: 6.00 Build 0)  -->
<svg version="1.1" id="Layer_1" xmlns="http://www.w3.org/2000/svg" xmlns:xlink="http://www.w3.org/1999/xlink" x="0px" y="0px"
	 viewBox="0 0 64 64" style="enable-background:new 0 0 64 64;" xml:space="preserve">
<style type="text/css">
	.st0{fill:#167EBB;fill-opacity:1.000000e-002;}
	.st1{fill:#167EBB;}
</style>
<title>security</title>
<desc>Created with Sketch.</desc>
<g id="Page-1">
	<g id="grid" transform="translate(-272.000000, -356.000000)">
		<g id="security" transform="translate(272.000000, 356.000000)">
			<rect id="wrapper" class="st0" width="64" height="64"/>
			<g id="icon" transform="translate(12.000000, 10.000000)">
				<path id="Shape" class="st1" d="M31.9,20.6c-0.4-0.1-0.7,0.2-0.8,0.6L30,27.5c-0.1,0.4,0.2,0.7,0.6,0.8c0,0,0.1,0,0.1,0
					c0.3,0,0.6-0.2,0.7-0.6l1.1-6.4C32.5,21,32.3,20.7,31.9,20.6z"/>
				<path id="Shape_1_" class="st1" d="M33.8,10.5L29.2,9c-0.4-0.1-0.8,0.1-0.9,0.4c-0.1,0.4,0.1,0.8,0.4,0.9l4,1.4l-0.6,3.5
					c-0.1,0.4,0.2,0.7,0.6,0.8c0,0,0.1,0,0.1,0c0.3,0,0.6-0.2,0.7-0.6l0.7-4.1C34.3,11,34.1,10.6,33.8,10.5z"/>
				<path id="Shape_2_" class="st1" d="M27.3,8.3l-3-1c-0.4-0.1-0.8,0.1-0.9,0.4c-0.1,0.4,0.1,0.8,0.4,0.9l3,1c0.1,0,0.2,0,0.2,0
					c0.3,0,0.6-0.2,0.7-0.5C27.9,8.8,27.7,8.4,27.3,8.3z"/>
				<path id="Shape_3_" class="st1" d="M21.6,19.6c2.1-0.6,3.6-2.4,3.6-4.6c0-2.7-2.2-4.8-4.8-4.8s-4.8,2.2-4.8,4.8
					c0,2.2,1.5,4.1,3.6,4.6c-3.5,0.6-6.2,3.7-6.2,7.3v3.7c0,0.4,0.3,0.7,0.7,0.7h13.5c0.4,0,0.7-0.3,0.7-0.7v-3.7
					C27.8,23.2,25.1,20.2,21.6,19.6z M16.9,14.9c0-1.9,1.5-3.4,3.4-3.4c1.9,0,3.4,1.5,3.4,3.4s-1.5,3.4-3.4,3.4
					C18.4,18.3,16.9,16.8,16.9,14.9z M26.4,29.9H14.3v-3c0-3.3,2.7-6,6.1-6s6.1,2.7,6.1,6V29.9z"/>
				<path id="Shape_4_" class="st1" d="M36.9,8.7L20.6,3C20.4,3,20.2,3,20.1,3L3.7,8.7C3.4,8.8,3.2,9.1,3.3,9.4l3.9,22.7
					c0,0.2,0.1,0.3,0.3,0.5l12.5,8.7c0.1,0.1,0.3,0.1,0.4,0.1c0.1,0,0.3,0,0.4-0.1l12.5-8.7c0.2-0.1,0.3-0.3,0.3-0.5l3.9-22.7
					C37.5,9.1,37.3,8.8,36.9,8.7z M32.2,31.6l-11.8,8.2L8.5,31.6L4.7,9.8l15.6-5.4l15.6,5.4L32.2,31.6z"/>
				<path id="Shape_5_" class="st1" d="M40.1,6.8L20.6,0C20.4,0,20.2,0,20.1,0L0.5,6.8C0.2,6.9,0,7.2,0.1,7.6l4.5,26.2
					c0,0.2,0.1,0.3,0.3,0.5l15.1,10.5c0.1,0.1,0.3,0.1,0.4,0.1c0.1,0,0.3,0,0.4-0.1l15.1-10.5c0.2-0.1,0.3-0.3,0.3-0.5l4.5-26.2
					C40.7,7.2,40.5,6.9,40.1,6.8z M34.7,33.2l-14.4,10l-14.4-10L1.6,7.9l18.8-6.5l18.8,6.5L34.7,33.2z"/>
			</g>
		</g>
	</g>
</g>
</svg>
