<?xml version="1.0" encoding="utf-8"?>
<!-- Generator: Adobe Illustrator 23.0.2, SVG Export Plug-In . SVG Version: 6.00 Build 0)  -->
<svg version="1.1" id="Camada_1" xmlns="http://www.w3.org/2000/svg" xmlns:xlink="http://www.w3.org/1999/xlink" x="0px" y="0px"
	 viewBox="0 0 1920 1080" style="enable-background:new 0 0 1920 1080;" xml:space="preserve">
<style type="text/css">
	.st0{clip-path:url(#SVGID_2_);fill:#FFFFFF;}
	.st1{clip-path:url(#SVGID_4_);fill:#FFFFFF;}
	.st2{clip-path:url(#SVGID_6_);fill:#FFFFFF;}
	.st3{clip-path:url(#SVGID_8_);fill:#FFFFFF;}
	.st4{clip-path:url(#SVGID_10_);fill:#FFFFFF;}
	.st5{clip-path:url(#SVGID_12_);fill:#FFFFFF;}
	.st6{clip-path:url(#SVGID_14_);fill:#FFFFFF;}
	.st7{clip-path:url(#SVGID_16_);fill:#FFFFFF;}
	.st8{clip-path:url(#SVGID_18_);fill:#FFFFFF;}
	.st9{clip-path:url(#SVGID_20_);fill:#FFFFFF;}
	.st10{clip-path:url(#SVGID_22_);fill:#FFFFFF;}
</style>
<g>
	<g>
		<g>
			<defs>
				<path id="SVGID_1_" d="M1044.5,387.14c-53.24,0-96.55,43.31-96.55,96.55c0,53.24,43.31,96.55,96.55,96.55
					s96.55-43.31,96.55-96.55C1141.04,430.45,1097.73,387.14,1044.5,387.14z M1044.5,566.69c-45.77,0-83-37.24-83-83s37.24-83,83-83
					c45.77,0,83,37.24,83,83S1090.26,566.69,1044.5,566.69z"/>
			</defs>
			<use xlink:href="#SVGID_1_"  style="overflow:visible;fill:#FFFFFF;"/>
			<clipPath id="SVGID_2_">
				<use xlink:href="#SVGID_1_"  style="overflow:visible;"/>
			</clipPath>
			<rect x="733.07" y="323.73" class="st0" width="454.25" height="346.28"/>
		</g>
		<g>
			<defs>
				<path id="SVGID_3_" d="M833.98,428.52c-30.42,0-55.17,24.75-55.17,55.17s24.75,55.17,55.17,55.17s55.17-24.75,55.17-55.17
					S864.4,428.52,833.98,428.52z M833.98,525.62c-23.12,0-41.93-18.81-41.93-41.93s18.81-41.93,41.93-41.93
					c23.12,0,41.93,18.81,41.93,41.93S857.1,525.62,833.98,525.62z"/>
			</defs>
			<use xlink:href="#SVGID_3_"  style="overflow:visible;fill:#FFFFFF;"/>
			<clipPath id="SVGID_4_">
				<use xlink:href="#SVGID_3_"  style="overflow:visible;"/>
			</clipPath>
			<rect x="733.07" y="323.73" class="st1" width="454.25" height="346.28"/>
		</g>
		<g>
			<defs>
				<path id="SVGID_5_" d="M1142.98,402.57c-18.96-22.39-45.19-37.53-73.86-42.63c-14.9-2.65-30.48-2.58-45.43,0.23L809.1,403.91
					l-0.16,0.04c-11.08,2.95-21.25,8.09-30.22,15.28c-19.74,15.78-31.06,39.27-31.06,64.46c0,24.99,11.17,48.36,30.65,64.12
					c8.19,6.65,17.46,11.61,27.53,14.73l223.79,45.64l0.27,0.04c5.61,0.78,11.38,1.17,17.15,1.17c7.51,0,15.06-0.67,22.43-2.01
					l0.27-0.05c59.68-10.94,103-62.94,103-123.65C1172.73,454.03,1162.17,425.23,1142.98,402.57z M1047.03,595
					c-5.03,0-10.12-0.35-15.11-1.03L809.7,548.67c-28.5-9-47.65-35.1-47.65-64.98c0-30.67,20.66-57.69,50.25-65.75l210.86-42.98
					l3.24-0.66c6.72-1.28,13.66-1.93,20.63-1.93c61.38,0,111.31,49.93,111.31,111.31C1158.34,545.07,1108.41,595,1047.03,595z"/>
			</defs>
			<use xlink:href="#SVGID_5_"  style="overflow:visible;fill:#FFFFFF;"/>
			<clipPath id="SVGID_6_">
				<use xlink:href="#SVGID_5_"  style="overflow:visible;"/>
			</clipPath>
			<rect x="726.23" y="318.92" class="st2" width="467.93" height="356.7"/>
		</g>
		<g>
			<defs>
				
					<ellipse id="SVGID_7_" transform="matrix(0.9732 -0.2298 0.2298 0.9732 -83.1259 253.4474)" cx="1046.81" cy="483.69" rx="12.8" ry="12.8"/>
			</defs>
			<use xlink:href="#SVGID_7_"  style="overflow:visible;fill:#FFFFFF;"/>
			<clipPath id="SVGID_8_">
				<use xlink:href="#SVGID_7_"  style="overflow:visible;"/>
			</clipPath>
			<rect x="733.07" y="323.73" class="st3" width="454.25" height="346.28"/>
		</g>
		<g>
			<defs>
				<circle id="SVGID_9_" cx="833.98" cy="483.32" r="8.66"/>
			</defs>
			<use xlink:href="#SVGID_9_"  style="overflow:visible;fill:#FFFFFF;"/>
			<clipPath id="SVGID_10_">
				<use xlink:href="#SVGID_9_"  style="overflow:visible;"/>
			</clipPath>
			<rect x="733.07" y="323.73" class="st4" width="454.25" height="346.28"/>
		</g>
	</g>
	<g>
		<g>
			<defs>
				<path id="SVGID_11_" d="M862.16,666.33c0,0.21-0.07,1.5-0.21,3.86h-32.37c0.21,0.63,0.45,1.22,0.73,1.78
					c1.81,3.62,5.22,5.43,10.23,5.43c3.83,0,7.24-1.29,10.23-3.86l5.85,6.06c0.7,0.7,1.01,1.55,0.94,2.56
					c-0.07,1.01-0.52,1.83-1.36,2.46c-4.04,3.13-9.43,4.7-16.18,4.7c-7.79,0-14.09-2.16-18.9-6.47c-4.8-4.31-7.21-9.85-7.21-16.6
					c0-6.68,2.32-12.18,6.94-16.5c4.63-4.31,10.46-6.47,17.49-6.47c6.82,0,12.49,2.07,17.02,6.21
					C859.9,653.61,862.16,659.23,862.16,666.33z M829.9,659.96c-0.07,0.21-1.34,0.54-3.81,0.99c-2.47,0.45-3.71,0.82-3.71,1.1h25.16
					c-0.42-2.37-1.43-4.23-3.03-5.59c-1.6-1.36-3.62-2.04-6.06-2.04C834.28,654.43,831.43,656.27,829.9,659.96z"/>
			</defs>
			<use xlink:href="#SVGID_11_"  style="overflow:visible;fill:#FFFFFF;"/>
			<clipPath id="SVGID_12_">
				<use xlink:href="#SVGID_11_"  style="overflow:visible;"/>
			</clipPath>
			<rect x="781.7" y="546.67" class="st5" width="382.34" height="346.6"/>
		</g>
		<g>
			<defs>
				<path id="SVGID_13_" d="M897.55,643.26c3.55,0,6.66,0.68,9.34,2.04c2.68,1.36,4.85,3.55,6.53,6.58
					c1.67,3.03,2.51,6.77,2.51,11.22v25.47h-15.66V665.6c0-6.06-2.44-9.08-7.31-9.08c-2.65,0-4.79,0.87-6.42,2.61
					c-1.64,1.74-2.45,4.38-2.45,7.93v15.35c0,1.67-0.59,3.12-1.78,4.33c-1.18,1.22-2.65,1.83-4.38,1.83h-9.4v-39.05
					c0-1.53,0.54-2.82,1.62-3.86c1.08-1.04,2.35-1.57,3.81-1.57h9.4l-5.95,10.02c2.92-3.76,6.19-6.51,9.81-8.25
					C890.84,644.13,894.28,643.26,897.55,643.26z"/>
			</defs>
			<use xlink:href="#SVGID_13_"  style="overflow:visible;fill:#FFFFFF;"/>
			<clipPath id="SVGID_14_">
				<use xlink:href="#SVGID_13_"  style="overflow:visible;"/>
			</clipPath>
			<rect x="781.7" y="546.67" class="st6" width="382.34" height="346.6"/>
		</g>
		<g>
			<defs>
				<path id="SVGID_15_" d="M966.36,644.09c1.74,0,3.25,0.63,4.54,1.88c1.29,1.25,1.93,2.78,1.93,4.59v29.86
					c0,4.18-0.58,7.83-1.72,10.96c-1.15,3.13-2.85,5.71-5.12,7.73c-2.26,2.02-5,3.53-8.2,4.54c-3.2,1.01-6.89,1.51-11.07,1.51
					c-9.26,0-16.6-1.95-22.03-5.85l3.13-6.16c0.63-1.18,1.58-2,2.87-2.45c1.29-0.45,2.52-0.4,3.71,0.16
					c3.55,1.53,7.21,2.3,10.96,2.3c7.93,0,11.9-3.55,11.9-10.65v-1.57c-3.06,3.55-7.48,5.32-13.26,5.32
					c-6.06,0-11.21-1.98-15.45-5.95c-4.25-3.97-6.37-9.15-6.37-15.56c0-6.4,2.12-11.59,6.37-15.56c4.24-3.97,9.4-5.95,15.45-5.95
					c3.41,0,6.98,0.87,10.7,2.61c3.72,1.74,6.66,4.25,8.82,7.52l-5.53-9.29H966.36z M940.67,671.34c1.88,1.67,4.23,2.51,7.05,2.51
					c2.82,0,5.13-0.85,6.94-2.56c1.81-1.71,2.71-3.9,2.71-6.58c0-2.68-0.9-4.85-2.71-6.53c-1.81-1.67-4.12-2.51-6.94-2.51
					c-2.82,0-5.15,0.83-7,2.51c-1.85,1.67-2.77,3.85-2.77,6.53C937.96,667.39,938.86,669.6,940.67,671.34z"/>
			</defs>
			<use xlink:href="#SVGID_15_"  style="overflow:visible;fill:#FFFFFF;"/>
			<clipPath id="SVGID_16_">
				<use xlink:href="#SVGID_15_"  style="overflow:visible;"/>
			</clipPath>
			<rect x="781.7" y="546.67" class="st7" width="382.34" height="346.6"/>
		</g>
		<g>
			<defs>
				<path id="SVGID_17_" d="M988.7,639.08c-2.78,0-5.06-0.78-6.84-2.35c-1.78-1.57-2.66-3.53-2.66-5.9c0-2.37,0.89-4.33,2.66-5.9
					c1.77-1.57,4.05-2.35,6.84-2.35c1.88,0,3.55,0.33,5.01,0.99c1.46,0.66,2.57,1.6,3.34,2.82c0.77,1.22,1.15,2.63,1.15,4.23
					c0,1.6-0.38,3.05-1.15,4.33c-0.77,1.29-1.88,2.3-3.34,3.03S990.58,639.08,988.7,639.08z M980.87,682.83v-38.73h10.44
					c1.46,0,2.7,0.49,3.71,1.46c1.01,0.98,1.51,2.19,1.51,3.65v39.36h-9.92c-1.6,0-2.96-0.56-4.07-1.67
					C981.43,685.78,980.87,684.43,980.87,682.83z"/>
			</defs>
			<use xlink:href="#SVGID_17_"  style="overflow:visible;fill:#FFFFFF;"/>
			<clipPath id="SVGID_18_">
				<use xlink:href="#SVGID_17_"  style="overflow:visible;"/>
			</clipPath>
			<rect x="781.7" y="546.67" class="st8" width="382.34" height="346.6"/>
		</g>
		<g>
			<defs>
				<path id="SVGID_19_" d="M1033.59,643.26c3.55,0,6.67,0.68,9.34,2.04c2.68,1.36,4.86,3.55,6.53,6.58
					c1.67,3.03,2.51,6.77,2.51,11.22v25.47h-15.66V665.6c0-6.06-2.44-9.08-7.31-9.08c-2.65,0-4.79,0.87-6.42,2.61
					c-1.64,1.74-2.46,4.38-2.46,7.93v15.35c0,1.67-0.59,3.12-1.77,4.33c-1.19,1.22-2.65,1.83-4.39,1.83h-9.4v-39.05
					c0-1.53,0.54-2.82,1.62-3.86c1.08-1.04,2.35-1.57,3.81-1.57h9.4l-5.95,10.02c2.92-3.76,6.19-6.51,9.81-8.25
					C1026.88,644.13,1030.32,643.26,1033.59,643.26z"/>
			</defs>
			<use xlink:href="#SVGID_19_"  style="overflow:visible;fill:#FFFFFF;"/>
			<clipPath id="SVGID_20_">
				<use xlink:href="#SVGID_19_"  style="overflow:visible;"/>
			</clipPath>
			<rect x="781.7" y="546.67" class="st9" width="382.34" height="346.6"/>
		</g>
		<g>
			<defs>
				<path id="SVGID_21_" d="M1106.47,666.33c0,0.21-0.07,1.5-0.21,3.86h-32.37c0.21,0.63,0.45,1.22,0.73,1.78
					c1.81,3.62,5.22,5.43,10.23,5.43c3.83,0,7.24-1.29,10.23-3.86l5.85,6.06c0.69,0.7,1.01,1.55,0.94,2.56
					c-0.07,1.01-0.52,1.83-1.36,2.46c-4.04,3.13-9.43,4.7-16.18,4.7c-7.8,0-14.09-2.16-18.9-6.47c-4.8-4.31-7.2-9.85-7.2-16.6
					c0-6.68,2.31-12.18,6.94-16.5c4.63-4.31,10.46-6.47,17.49-6.47c6.82,0,12.49,2.07,17.02,6.21
					C1104.21,653.61,1106.47,659.23,1106.47,666.33z M1074.21,659.96c-0.07,0.21-1.34,0.54-3.81,0.99c-2.47,0.45-3.71,0.82-3.71,1.1
					h25.16c-0.42-2.37-1.43-4.23-3.03-5.59c-1.6-1.36-3.62-2.04-6.06-2.04C1078.59,654.43,1075.74,656.27,1074.21,659.96z"/>
			</defs>
			<use xlink:href="#SVGID_21_"  style="overflow:visible;fill:#FFFFFF;"/>
			<clipPath id="SVGID_22_">
				<use xlink:href="#SVGID_21_"  style="overflow:visible;"/>
			</clipPath>
			<rect x="781.7" y="546.67" class="st10" width="382.34" height="346.6"/>
		</g>
	</g>
</g>
</svg>
